<svg xmlns="http://www.w3.org/2000/svg" xmlns:xlink="http://www.w3.org/1999/xlink" width="500" zoomAndPan="magnify" viewBox="0 0 375 374.999991" height="500" preserveAspectRatio="xMidYMid meet" version="1.2"> 
<metadata>
    Author: Santosh Poudel; 
    Created: 2025-06-30; 
    Description: This is a modern and clean logo for Hemu.It represents innovation and simplicity ,i created this logo for his website . 
    Copyright: © 2025 santoshpoudel. All rights reserved.
    Contact : santoshpoudel06.com.np
  </metadata>
  <desc>
    A simple logo for hemu created by santosh poudel.
  </desc>
  <defs><clipPath id="cf2742af63"><path d="M 173.609375 158.800781 L 256.109375 158.800781 L 256.109375 218.050781 L 173.609375 218.050781 Z M 173.609375 158.800781 "/></clipPath><clipPath id="47c8ff4fee"><path d="M 66.226562 175.023438 L 112.726562 175.023438 L 112.726562 219.273438 L 66.226562 219.273438 Z M 66.226562 175.023438 "/></clipPath></defs><g id="52bf1bdbd5"><g style="fill:#012c18;fill-opacity:1;"><g transform="translate(62.989883, 217.411135)"><path style="stroke:none" d="M 8.359375 -47.65625 L 8.359375 -65.390625 L 24.796875 -65.390625 L 24.796875 -47.65625 L 34.828125 -47.65625 L 34.828125 -35.109375 L 24.796875 -35.109375 L 24.796875 -19.96875 C 24.796875 -15.570312 26.035156 -13.375 28.515625 -13.375 C 29.140625 -13.375 29.789062 -13.5 30.46875 -13.75 C 31.144531 -14 31.671875 -14.242188 32.046875 -14.484375 L 32.609375 -14.859375 L 36.6875 -1.578125 C 33.15625 0.398438 29.128906 1.390625 24.609375 1.390625 C 21.515625 1.390625 18.851562 0.847656 16.625 -0.234375 C 14.394531 -1.316406 12.707031 -2.769531 11.5625 -4.59375 C 10.414062 -6.425781 9.59375 -8.347656 9.09375 -10.359375 C 8.601562 -12.367188 8.359375 -14.519531 8.359375 -16.8125 L 8.359375 -35.109375 L 1.484375 -35.109375 L 1.484375 -47.65625 Z M 8.359375 -47.65625 "/></g></g><g style="fill:#012c18;fill-opacity:1;"><g transform="translate(91.78213, 217.411135)"><path style="stroke:none" d="M 5.578125 0 L 5.578125 -47.65625 L 22.015625 -47.65625 L 22.015625 -40.78125 L 22.203125 -40.78125 C 22.328125 -41.03125 22.523438 -41.335938 22.796875 -41.703125 C 23.078125 -42.078125 23.679688 -42.726562 24.609375 -43.65625 C 25.546875 -44.582031 26.539062 -45.414062 27.59375 -46.15625 C 28.644531 -46.90625 30.003906 -47.570312 31.671875 -48.15625 C 33.347656 -48.75 35.050781 -49.046875 36.78125 -49.046875 C 38.582031 -49.046875 40.347656 -48.796875 42.078125 -48.296875 C 43.816406 -47.804688 45.085938 -47.3125 45.890625 -46.8125 L 47.1875 -46.078125 L 40.3125 -32.140625 C 38.269531 -33.867188 35.421875 -34.734375 31.765625 -34.734375 C 29.785156 -34.734375 28.082031 -34.300781 26.65625 -33.4375 C 25.226562 -32.570312 24.222656 -31.519531 23.640625 -30.28125 C 23.054688 -29.039062 22.640625 -27.988281 22.390625 -27.125 C 22.140625 -26.257812 22.015625 -25.578125 22.015625 -25.078125 L 22.015625 0 Z M 5.578125 0 "/></g></g><g style="fill:#012c18;fill-opacity:1;"><g transform="translate(130.141082, 217.411135)"><path style="stroke:none" d="M 8.828125 -5.890625 C 4.367188 -10.753906 2.140625 -16.71875 2.140625 -23.78125 C 2.140625 -30.84375 4.367188 -36.816406 8.828125 -41.703125 C 13.285156 -46.597656 18.953125 -49.046875 25.828125 -49.046875 C 32.140625 -49.046875 37.335938 -47.0625 41.421875 -43.09375 L 41.421875 -47.65625 L 57.875 -47.65625 L 57.875 0 L 41.609375 0 L 41.609375 -5.390625 L 41.421875 -5.390625 C 37.335938 -0.867188 32.140625 1.390625 25.828125 1.390625 C 18.953125 1.390625 13.285156 -1.035156 8.828125 -5.890625 Z M 22.796875 -31.859375 C 20.660156 -29.753906 19.59375 -27.0625 19.59375 -23.78125 C 19.59375 -20.5 20.613281 -17.820312 22.65625 -15.75 C 24.707031 -13.675781 27.40625 -12.640625 30.75 -12.640625 C 33.96875 -12.640625 36.613281 -13.691406 38.6875 -15.796875 C 40.757812 -17.898438 41.796875 -20.5625 41.796875 -23.78125 C 41.796875 -27.0625 40.726562 -29.753906 38.59375 -31.859375 C 36.457031 -33.960938 33.84375 -35.015625 30.75 -35.015625 C 27.59375 -35.015625 24.941406 -33.960938 22.796875 -31.859375 Z M 22.796875 -31.859375 "/></g></g><g style="fill:#012c18;fill-opacity:1;"><g transform="translate(185.682957, 217.411135)"><path style="stroke:none" d="M 17.65625 -47.65625 L 29.265625 -21.734375 L 40.875 -47.65625 L 60.375 -47.65625 L 34.828125 0 L 23.6875 0 L -1.859375 -47.65625 Z M 17.65625 -47.65625 "/></g></g><g style="fill:#012c18;fill-opacity:1;"><g transform="translate(236.302159, 217.411135)"><path style="stroke:none" d="M 53.78125 -21.546875 L 19.234375 -21.546875 C 19.234375 -18.203125 20.316406 -15.722656 22.484375 -14.109375 C 24.648438 -12.503906 27.003906 -11.703125 29.546875 -11.703125 C 32.203125 -11.703125 34.300781 -12.054688 35.84375 -12.765625 C 37.394531 -13.484375 39.164062 -14.894531 41.15625 -17 L 53.046875 -11.046875 C 48.085938 -2.753906 39.847656 1.390625 28.328125 1.390625 C 21.148438 1.390625 14.988281 -1.066406 9.84375 -5.984375 C 4.707031 -10.910156 2.140625 -16.84375 2.140625 -23.78125 C 2.140625 -30.71875 4.707031 -36.660156 9.84375 -41.609375 C 14.988281 -46.566406 21.148438 -49.046875 28.328125 -49.046875 C 35.890625 -49.046875 42.035156 -46.863281 46.765625 -42.5 C 51.503906 -38.132812 53.875 -31.894531 53.875 -23.78125 C 53.875 -22.664062 53.84375 -21.921875 53.78125 -21.546875 Z M 19.6875 -30.65625 L 37.8125 -30.65625 C 37.4375 -33.132812 36.457031 -35.035156 34.875 -36.359375 C 33.300781 -37.691406 31.273438 -38.359375 28.796875 -38.359375 C 26.066406 -38.359375 23.894531 -37.644531 22.28125 -36.21875 C 20.675781 -34.800781 19.8125 -32.945312 19.6875 -30.65625 Z M 19.6875 -30.65625 "/></g></g><g style="fill:#012c18;fill-opacity:1;"><g transform="translate(284.413574, 217.411135)"><path style="stroke:none" d="M 5.578125 0 L 5.578125 -79.890625 L 22.015625 -79.890625 L 22.015625 0 Z M 5.578125 0 "/></g></g><g clip-rule="nonzero" clip-path="url(#cf2742af63)"><path style=" stroke:none;fill-rule:nonzero;fill:#fff9f3;fill-opacity:1;" d="M 254.644531 194.175781 C 258 195.730469 260.527344 198.089844 261.71875 201.085938 C 260.71875 195.621094 255.421875 191.625 248.679688 189.988281 C 244.660156 188.960938 240.136719 188.65625 235.476562 188.90625 C 233.867188 188.988281 232.230469 189.15625 230.566406 189.378906 C 233.285156 188.1875 236.699219 187.964844 240.136719 188.65625 C 237.808594 187.601562 235.253906 186.910156 232.816406 186.742188 C 232.871094 186.714844 232.898438 186.714844 232.953125 186.6875 C 233.175781 186.578125 233.398438 186.464844 233.621094 186.382812 C 233.730469 186.328125 233.867188 186.273438 233.980469 186.242188 C 234.117188 186.214844 234.230469 186.1875 234.367188 186.160156 C 236.558594 185.746094 241.664062 186.796875 241.691406 186.6875 C 241.71875 186.632812 241.691406 186.550781 241.636719 186.492188 C 240.414062 185.273438 238.695312 184.328125 236.976562 183.773438 C 239.359375 183.636719 241.859375 184.109375 244.382812 184.855469 C 242.773438 184.050781 241.054688 183.332031 239.277344 182.832031 C 241.886719 182.804688 244.1875 182.859375 247.015625 183.359375 C 245.4375 181.667969 243.023438 180.695312 240.804688 180.253906 C 241.800781 179.78125 243.214844 179.890625 244.9375 180.445312 C 245.4375 180.613281 246.019531 180.78125 246.546875 180.945312 C 246.90625 181.085938 248.460938 181.417969 248.292969 181.304688 C 247.960938 181.085938 247.128906 180.503906 246.824219 180.308594 C 246.324219 180.003906 245.769531 179.667969 245.269531 179.390625 L 244.964844 179.226562 C 247.40625 178.894531 250.066406 179.003906 252.84375 179.613281 C 251.398438 178.753906 249.820312 178.035156 248.183594 177.394531 C 250.761719 177.007812 253.589844 177.367188 256.363281 178.367188 C 255.144531 177.5625 253.839844 176.8125 252.425781 176.230469 C 252.453125 176.230469 252.480469 176.230469 252.507812 176.230469 C 252.980469 176.203125 253.480469 176.203125 253.953125 176.175781 C 254.449219 176.175781 254.949219 176.175781 255.449219 176.175781 C 255.949219 176.175781 256.476562 176.203125 257.003906 176.203125 C 256.53125 175.925781 256.03125 175.648438 255.503906 175.398438 C 255.003906 175.175781 254.480469 174.925781 253.953125 174.730469 C 253.425781 174.539062 252.898438 174.34375 252.34375 174.175781 C 241.71875 170.960938 231.898438 174.925781 226.769531 181.640625 C 223.9375 169.851562 217.199219 161.585938 209.210938 158.949219 C 211.316406 160.445312 213.257812 162.25 214.949219 164.496094 C 214.644531 164.246094 214.285156 164.023438 213.953125 163.804688 C 213.425781 163.46875 212.871094 163.222656 212.316406 163.027344 C 211.402344 162.722656 210.484375 162.554688 209.542969 162.554688 C 209.488281 162.554688 209.429688 162.636719 209.429688 162.722656 C 209.429688 162.804688 211.09375 163.914062 211.816406 164.550781 C 212.175781 164.886719 212.539062 165.21875 212.871094 165.605469 L 213.371094 166.160156 C 213.535156 166.355469 213.703125 166.550781 213.839844 166.742188 C 214.0625 167.019531 214.285156 167.355469 214.480469 167.6875 C 213.148438 167.296875 211.734375 167.242188 210.292969 167.910156 C 212.453125 169.269531 214.507812 170.40625 216.617188 171.847656 C 214.949219 171.738281 213.203125 172.347656 211.566406 173.34375 C 213.621094 173.097656 215.617188 173.621094 217.199219 175.121094 C 216.0625 175.121094 214.257812 175.507812 214.257812 175.648438 C 214.257812 175.730469 214.339844 175.84375 214.339844 175.84375 C 215.476562 176.398438 216.476562 177.199219 217.476562 178.089844 C 218.167969 178.753906 218.972656 179.390625 219.609375 180.167969 C 219.582031 180.167969 219.582031 180.167969 219.554688 180.167969 C 217.199219 177.785156 214.425781 176.257812 210.847656 174.871094 C 205.4375 172.652344 199.277344 172.320312 194.007812 174.730469 C 193.230469 175.066406 192.457031 175.507812 191.734375 175.980469 C 191.375 176.203125 191.011719 176.480469 190.679688 176.730469 C 190.570312 176.785156 190.542969 176.921875 190.570312 177.0625 C 190.625 177.199219 194.953125 175.953125 196.976562 175.84375 C 195.394531 176.675781 193.980469 177.976562 192.953125 179.476562 C 192.925781 179.53125 192.898438 179.613281 192.953125 179.667969 C 193.011719 179.753906 195.285156 178.558594 196.367188 178.226562 C 197.613281 177.839844 198.863281 177.644531 200.140625 177.671875 C 198.78125 178.476562 197.476562 179.585938 196.699219 181.027344 C 196.671875 181.113281 196.644531 181.195312 196.699219 181.277344 C 196.949219 181.335938 200.195312 179.945312 201.441406 180.003906 C 201.277344 180.195312 201.109375 180.390625 200.972656 180.585938 L 200.386719 181.363281 C 200.140625 181.75 199.859375 182.195312 199.613281 182.609375 C 199.472656 182.886719 199.085938 183.609375 198.945312 183.886719 C 199.167969 183.664062 199.722656 183.136719 199.945312 182.914062 C 200.277344 182.636719 200.664062 182.332031 201 182.054688 L 201.746094 181.554688 C 203.441406 180.585938 204.910156 180.308594 206.019531 180.335938 C 204.160156 181.363281 202.496094 182.859375 201.191406 184.550781 C 202.886719 183.359375 204.714844 182.527344 206.683594 182.136719 C 205.632812 182.886719 203.800781 184.882812 203.828125 184.96875 C 203.910156 185.078125 207.40625 183.71875 208.847656 183.609375 C 207.542969 184.328125 206.351562 185.246094 205.296875 186.242188 C 207.074219 185.246094 208.960938 184.605469 210.875 184.328125 C 209.957031 185.132812 209.210938 186.160156 208.765625 187.242188 C 208.710938 187.242188 208.683594 187.242188 208.625 187.269531 C 204.6875 188.214844 200.886719 189.820312 197.53125 192.042969 C 192.703125 195.34375 188.820312 199.863281 185.714844 204.664062 C 185.660156 204.773438 185.660156 204.882812 185.742188 204.996094 C 185.851562 205.105469 187.351562 203.773438 187.988281 203.191406 C 187.710938 203.71875 187.460938 204.246094 187.296875 204.800781 C 187.269531 204.855469 187.351562 204.941406 187.40625 204.882812 C 188.875 203.636719 190.152344 202.441406 191.457031 201.085938 C 190.707031 202.777344 190.265625 204.664062 190.152344 206.464844 C 191.207031 203.664062 193.011719 201.167969 195.480469 199.503906 C 194.730469 201.277344 194.3125 203.304688 194.425781 205.21875 C 194.480469 205.246094 196.0625 202.96875 196.644531 202.027344 C 197.226562 201 198.472656 198.863281 199.058594 197.867188 C 198.363281 199.808594 198.003906 201.972656 198.503906 203.996094 C 198.503906 203.996094 199.058594 201.445312 199.554688 200.28125 C 199.777344 199.695312 200.054688 199.140625 200.386719 198.617188 C 200.695312 198.058594 201.027344 197.5625 201.386719 197.0625 C 201.96875 196.230469 202.746094 195.5625 203.410156 194.789062 C 203.410156 194.789062 203.410156 194.789062 203.410156 194.816406 C 201.914062 197.117188 200.886719 199.808594 200.527344 202.472656 C 201.109375 201.027344 201.859375 199.695312 202.746094 198.503906 C 202.71875 199.667969 202.886719 200.777344 203.105469 201.886719 C 203.132812 201.972656 203.164062 202.027344 203.246094 202.054688 C 203.355469 202.109375 204.464844 199.667969 205.019531 198.699219 C 205.546875 197.753906 206.128906 196.894531 206.769531 196.257812 C 206.101562 197.671875 205.9375 199.335938 206.101562 200.863281 C 206.378906 198.449219 207.710938 196.3125 209.792969 195.09375 C 209.152344 196.730469 208.933594 198.699219 209.429688 200.335938 C 208.460938 201.582031 207.628906 202.941406 206.90625 204.414062 C 206.683594 204.855469 206.492188 205.328125 206.269531 205.800781 C 206.074219 206.269531 205.878906 206.742188 205.714844 207.214844 C 204.328125 210.988281 203.578125 215.175781 203.382812 219.445312 C 203.355469 219.753906 203.355469 220.085938 203.355469 220.390625 C 203.191406 220.527344 203.023438 220.695312 202.855469 220.832031 C 200.941406 222.71875 199.527344 225.273438 198.722656 227.992188 C 198.808594 225.550781 199.777344 223.164062 201.414062 221.304688 C 200 222.222656 198.75 223.441406 197.863281 224.882812 C 197.863281 224.855469 197.863281 224.800781 197.863281 224.773438 C 197.863281 224.578125 197.863281 224.382812 197.890625 224.191406 C 197.890625 224.078125 197.917969 223.996094 197.917969 223.886719 C 197.949219 223.800781 197.976562 223.691406 198.003906 223.609375 C 198.472656 222.027344 200.777344 219.363281 200.722656 219.308594 C 200.695312 219.253906 200.636719 219.253906 200.582031 219.253906 C 199.445312 219.363281 198.28125 219.972656 197.394531 220.75 C 198.085938 219.167969 199.195312 217.867188 200.472656 216.699219 C 199.445312 217.285156 198.445312 217.976562 197.558594 218.808594 C 198.390625 217.144531 199.167969 215.757812 200.386719 214.261719 C 198.835938 214.371094 197.449219 215.371094 196.449219 216.535156 C 196.503906 215.675781 197.003906 214.84375 197.890625 214.039062 C 198.167969 213.816406 198.445312 213.539062 198.722656 213.289062 C 198.917969 213.148438 199.640625 212.347656 199.527344 212.375 C 199.277344 212.457031 198.667969 212.679688 198.417969 212.761719 C 198.058594 212.929688 197.699219 213.09375 197.363281 213.261719 L 197.171875 213.371094 C 197.753906 211.679688 198.695312 210.070312 199.972656 208.628906 C 198.972656 209.101562 198.003906 209.683594 197.085938 210.375 C 197.671875 208.574219 198.835938 206.992188 200.332031 205.773438 C 199.445312 206.105469 198.558594 206.546875 197.753906 207.101562 C 197.753906 207.074219 197.78125 207.074219 197.78125 207.046875 C 197.917969 206.742188 198.085938 206.4375 198.226562 206.105469 C 198.390625 205.800781 198.558594 205.496094 198.695312 205.160156 C 198.863281 204.855469 199.058594 204.550781 199.222656 204.21875 C 198.890625 204.386719 198.558594 204.550781 198.253906 204.71875 C 197.949219 204.910156 197.640625 205.105469 197.335938 205.328125 C 197.03125 205.550781 196.753906 205.800781 196.476562 206.023438 C 190.625 211.375 190.207031 220.5 193.425781 227.464844 C 190.457031 225.855469 187.40625 225.382812 183.523438 225.328125 C 178.253906 225.160156 172.816406 226.769531 168.933594 230.375 C 168.351562 230.902344 167.796875 231.484375 167.296875 232.097656 C 167.046875 232.402344 166.824219 232.707031 166.574219 233.011719 C 166.492188 233.09375 166.519531 233.234375 166.574219 233.316406 C 166.660156 233.425781 170.070312 231.070312 171.789062 230.347656 C 170.652344 231.511719 169.765625 233.011719 169.292969 234.566406 C 169.265625 234.621094 169.292969 234.675781 169.347656 234.730469 C 169.40625 234.785156 171.039062 233.121094 171.902344 232.511719 C 172.871094 231.820312 173.898438 231.261719 175.035156 230.902344 C 174.0625 231.984375 173.261719 233.289062 172.953125 234.675781 C 172.925781 234.730469 172.953125 234.8125 173.011719 234.871094 C 173.261719 234.84375 175.671875 232.734375 176.753906 232.375 C 176.671875 232.566406 176.589844 232.789062 176.503906 232.984375 L 176.226562 233.816406 C 176.117188 234.203125 176.007812 234.648438 175.894531 235.0625 C 175.839844 235.339844 175.730469 236.035156 175.671875 236.3125 C 175.8125 236.0625 176.144531 235.453125 176.285156 235.230469 C 176.503906 234.898438 176.753906 234.535156 176.976562 234.203125 L 177.476562 233.566406 C 178.667969 232.261719 179.890625 231.570312 180.859375 231.261719 C 179.527344 232.679688 178.503906 234.398438 177.835938 236.199219 C 178.972656 234.703125 180.332031 233.453125 181.941406 232.566406 C 181.222656 233.484375 180.195312 235.675781 180.25 235.757812 C 180.359375 235.839844 182.996094 233.648438 184.214844 233.09375 C 183.300781 234.09375 182.496094 235.175781 181.859375 236.339844 C 183.136719 234.980469 184.578125 233.898438 186.160156 233.066406 C 186.160156 233.066406 186.160156 233.066406 186.160156 233.09375 C 185.574219 234.039062 185.214844 235.089844 185.132812 236.117188 C 186.65625 233.980469 189.429688 233.121094 191.898438 233.539062 C 191.59375 233.730469 191.316406 233.953125 191.039062 234.175781 C 188.351562 235.285156 185.992188 237.035156 184.4375 239.445312 C 182.828125 242.082031 181.664062 244.996094 181.136719 248.101562 C 180.417969 252.59375 180.972656 257.339844 182.136719 261.859375 C 182.164062 261.941406 182.246094 262.027344 182.359375 262.027344 C 182.46875 262.027344 182.523438 260.445312 182.523438 259.75 C 182.664062 260.195312 182.859375 260.640625 183.105469 261.082031 C 183.136719 261.136719 183.21875 261.136719 183.21875 261.054688 C 183.273438 259.527344 183.273438 258.140625 183.21875 256.671875 C 183.800781 258.085938 184.6875 259.445312 185.714844 260.582031 C 184.605469 258.335938 184.132812 255.894531 184.523438 253.621094 C 185.160156 255.089844 186.160156 256.535156 187.351562 257.617188 C 187.40625 257.617188 186.90625 255.425781 186.65625 254.535156 C 186.378906 253.621094 185.769531 251.679688 185.519531 250.765625 C 186.296875 252.289062 187.40625 253.789062 188.875 254.730469 C 188.875 254.730469 187.65625 252.898438 187.242188 251.957031 C 187.019531 251.484375 186.851562 251.011719 186.683594 250.515625 C 186.519531 250.042969 186.40625 249.542969 186.296875 249.042969 C 186.128906 248.238281 186.160156 247.433594 186.074219 246.628906 C 186.601562 248.792969 187.65625 250.957031 189.042969 252.734375 C 188.488281 251.566406 188.128906 250.375 187.90625 249.183594 C 188.597656 249.902344 189.347656 250.488281 190.125 251.042969 C 190.179688 251.070312 190.234375 251.097656 190.320312 251.070312 C 190.429688 251.042969 189.570312 249.015625 189.320312 248.128906 C 189.042969 247.269531 188.847656 246.464844 188.820312 245.742188 C 189.292969 246.9375 190.207031 248.046875 191.207031 248.851562 C 189.929688 247.242188 189.375 245.273438 189.792969 243.441406 C 190.429688 244.773438 191.484375 246.074219 192.734375 246.796875 C 191.816406 245.355469 191.679688 243.71875 192.039062 242.277344 C 192.621094 243.414062 193.398438 244.441406 194.257812 245.300781 C 194.398438 245.4375 194.617188 245.300781 194.535156 245.132812 C 194.0625 243.996094 193.675781 242.859375 193.566406 241.777344 C 194.007812 242.582031 194.535156 243.328125 195.144531 243.996094 C 194.757812 242.496094 194.703125 241.082031 195.007812 239.75 C 195.203125 240.554688 195.480469 241.332031 195.785156 242.054688 C 195.949219 239.335938 196.835938 236.921875 198.445312 234.953125 C 198.503906 234.898438 198.558594 234.84375 198.585938 234.785156 C 205.574219 255.507812 211.511719 272.484375 211.457031 296.367188 C 211.457031 296.367188 212.761719 296.421875 216.53125 296.367188 C 216.171875 272.621094 209.765625 256.394531 200.277344 233.621094 C 200.304688 233.621094 200.304688 233.621094 200.332031 233.648438 C 200.472656 233.703125 200.609375 233.789062 200.75 233.871094 L 201.164062 234.148438 C 201.414062 234.34375 201.746094 234.621094 201.96875 234.84375 C 202.082031 234.953125 202.246094 235.121094 202.359375 235.230469 C 202.886719 235.757812 203.328125 236.367188 203.828125 237.003906 C 203.882812 237.089844 203.996094 237.035156 203.9375 236.949219 C 203.578125 236.035156 203.105469 235.0625 202.523438 234.230469 C 202.46875 234.175781 202.441406 234.09375 202.386719 234.039062 C 203.71875 234.648438 204.910156 235.644531 205.910156 236.921875 C 205.519531 235.453125 204.855469 234.007812 203.964844 232.734375 C 204.464844 233.039062 204.9375 233.425781 205.410156 233.871094 C 205.546875 234.039062 205.714844 234.175781 205.851562 234.34375 C 205.992188 234.507812 206.128906 234.675781 206.269531 234.871094 C 206.40625 235.035156 206.546875 235.230469 206.683594 235.398438 C 206.683594 235.398438 207.101562 235.953125 207.101562 235.953125 C 207.183594 236.0625 207.324219 235.980469 207.265625 235.867188 C 207.128906 235.425781 206.988281 234.953125 206.796875 234.507812 C 206.710938 234.289062 206.601562 234.066406 206.492188 233.84375 C 206.378906 233.621094 206.242188 233.398438 206.128906 233.175781 C 206.074219 233.09375 206.019531 232.984375 205.964844 232.898438 C 207.019531 233.148438 207.988281 233.648438 208.847656 234.566406 C 209.402344 235.148438 209.902344 235.867188 210.292969 236.617188 C 210.152344 236.199219 210.042969 235.785156 209.847656 235.367188 C 209.292969 234.066406 208.40625 232.898438 207.296875 232.066406 C 209.265625 233.234375 210.957031 235.035156 212.289062 237.117188 C 212.039062 235.980469 211.679688 234.8125 211.179688 233.703125 C 212.09375 234.621094 212.898438 235.675781 213.675781 236.726562 C 213.785156 236.867188 213.757812 235.398438 213.59375 234.8125 C 214.230469 235.535156 215.589844 237.617188 215.589844 237.421875 C 215.617188 236.867188 215.5625 236.257812 215.449219 235.675781 C 216.835938 236.671875 218.113281 237.835938 219.113281 239.417969 C 218.863281 238.058594 218.308594 236.617188 217.613281 235.339844 C 219.609375 236.476562 221.277344 238.363281 222.496094 240.554688 C 222.164062 239.390625 221.71875 238.226562 221.109375 237.117188 C 222.273438 237.921875 224.6875 239.585938 225.019531 239.695312 C 223.855469 258.226562 221.109375 277.921875 218.222656 296.367188 L 224.855469 296.367188 C 226.988281 277.558594 229.015625 258.28125 229.347656 239.226562 C 229.515625 229.710938 229.238281 220.167969 228.515625 210.710938 C 228.183594 206.300781 227.738281 201.917969 227.210938 197.535156 C 228.488281 199.390625 229.042969 201.832031 228.738281 204.023438 C 229.515625 202.277344 229.875 200.25 229.597656 198.308594 C 231.59375 200.085938 232.84375 202.96875 232.121094 205.714844 C 232.898438 204.941406 233.507812 203.914062 233.898438 202.75 C 234.3125 204.632812 234.421875 206.605469 234.203125 208.574219 C 234.699219 207.242188 235.0625 205.828125 235.226562 204.386719 C 235.644531 205.773438 235.617188 209.433594 235.699219 209.488281 C 235.808594 209.542969 235.949219 209.488281 236.003906 209.378906 C 236.53125 208.296875 236.976562 207.132812 237.226562 205.910156 C 237.585938 207.878906 237.503906 209.847656 237.058594 211.847656 C 238.058594 210.070312 238.75 208.019531 239 205.964844 C 239.167969 206.242188 239.359375 206.492188 239.527344 206.742188 C 239.695312 207.90625 239.636719 209.101562 239.445312 210.347656 L 239.277344 211.207031 C 239.167969 211.625 239.027344 212.070312 238.917969 212.484375 C 238.804688 212.761719 238.558594 213.457031 238.445312 213.734375 C 238.640625 213.511719 239.140625 212.902344 239.304688 212.679688 C 239.554688 212.316406 239.859375 211.929688 240.109375 211.542969 L 240.582031 210.738281 C 240.691406 210.542969 240.804688 210.320312 240.914062 210.125 C 241.386719 211.265625 241.304688 214.648438 241.359375 214.925781 C 241.441406 215.007812 241.582031 214.980469 241.664062 214.898438 C 242.605469 213.675781 243.078125 212.125 243.328125 210.570312 C 244.242188 212.84375 244.410156 215.285156 243.992188 217.726562 C 243.992188 217.78125 244.019531 217.867188 244.078125 217.894531 C 244.160156 217.949219 245.464844 215.648438 245.769531 214.398438 C 245.878906 213.898438 245.960938 213.398438 246.019531 212.871094 C 246.628906 214.816406 246.988281 219.226562 247.128906 219.253906 C 247.265625 219.28125 247.40625 219.199219 247.433594 219.058594 C 248.265625 215.785156 248.125 212.207031 247.15625 208.851562 C 245.933594 204.632812 243.4375 200.972656 240.414062 197.839844 C 240.804688 197.035156 241.027344 196.175781 240.996094 195.3125 C 240.996094 195.3125 240.996094 195.285156 240.996094 195.285156 C 242.164062 196.480469 243.050781 197.867188 243.523438 199.449219 C 243.605469 197.753906 243.300781 196.117188 242.632812 194.566406 C 244.242188 195.757812 245.101562 197.421875 245.601562 199.226562 C 245.683594 197.839844 245.574219 196.453125 245.046875 195.175781 C 246.710938 196.5625 247.65625 198.421875 247.960938 200.472656 C 248.488281 198.367188 248.402344 196.203125 247.597656 194.371094 C 248.929688 195.371094 249.707031 196.703125 250.039062 198.226562 L 250.179688 198.949219 C 250.207031 199.308594 250.234375 199.695312 250.261719 200.058594 C 250.261719 200.308594 250.207031 200.972656 250.207031 201.222656 C 250.34375 200.972656 250.652344 200.28125 250.789062 200.03125 C 250.929688 199.640625 251.121094 199.199219 251.261719 198.808594 L 251.484375 197.976562 C 251.59375 197.503906 251.675781 197.035156 251.703125 196.5625 C 252.925781 197.644531 253.839844 198.949219 253.980469 200.558594 C 254.421875 199.058594 254.171875 197.5625 253.617188 196.257812 C 256.253906 197.617188 257.972656 199.753906 258.167969 202.414062 C 258.777344 199.113281 257.226562 196.367188 254.644531 194.175781 Z M 223.46875 195.871094 Z M 208.792969 187.269531 C 211.09375 185.523438 214.257812 185.660156 216.671875 187.046875 C 216.53125 187.074219 216.394531 187.132812 216.226562 187.160156 C 213.785156 186.742188 211.261719 186.714844 208.792969 187.269531 Z M 213.007812 195.871094 C 212.871094 196.257812 212.761719 196.644531 212.648438 197.0625 C 212.316406 197.339844 211.984375 197.617188 211.648438 197.921875 C 210.875 198.644531 210.152344 199.449219 209.457031 200.308594 C 209.957031 198.308594 211.34375 196.8125 213.007812 195.871094 Z M 209.957031 210.460938 C 210.152344 212.097656 210.511719 213.789062 211.09375 215.257812 C 210.292969 215.589844 209.515625 215.980469 208.738281 216.421875 C 208.820312 214.289062 209.179688 212.234375 209.957031 210.460938 Z M 207.933594 214.480469 C 208.015625 215.203125 208.128906 215.953125 208.292969 216.671875 C 207.792969 216.976562 207.296875 217.285156 206.824219 217.617188 C 207.210938 216.535156 207.65625 215.285156 207.933594 214.480469 Z M 204.519531 219.390625 C 204.882812 218.28125 205.269531 217.199219 205.660156 216.117188 C 205.6875 216.867188 205.769531 217.617188 205.851562 218.335938 C 205.382812 218.671875 204.9375 219.003906 204.519531 219.390625 Z M 224.992188 239.222656 C 224.992188 239.417969 224.964844 239.613281 224.964844 239.78125 C 224.546875 238.890625 224.078125 238.058594 223.578125 237.226562 C 224.078125 237.558594 224.578125 237.921875 225.046875 238.253906 C 225.019531 238.585938 225.019531 238.890625 224.992188 239.222656 Z M 225.132812 236.3125 C 223.328125 234.289062 221.304688 232.511719 219.140625 231.042969 C 218.777344 230.792969 218.390625 230.570312 218.03125 230.320312 C 217.640625 230.097656 217.253906 229.875 216.894531 229.683594 C 214.730469 228.546875 212.398438 227.796875 210.125 227.546875 C 208.738281 227.378906 207.378906 227.40625 206.046875 227.601562 C 205.910156 227.628906 205.769531 227.65625 205.632812 227.683594 C 207.15625 226.796875 209.042969 226.492188 210.734375 227.128906 C 210.152344 226.355469 209.320312 225.742188 208.378906 225.300781 C 210.011719 225.105469 211.679688 225.160156 213.34375 225.550781 C 212.261719 224.996094 211.09375 224.550781 209.875 224.273438 C 211.09375 224.050781 214.175781 224.382812 214.257812 224.300781 C 214.3125 224.21875 214.285156 224.078125 214.203125 224.023438 C 213.34375 223.441406 212.371094 222.96875 211.34375 222.636719 C 213.039062 222.5 214.703125 222.746094 216.339844 223.300781 C 214.921875 222.25 213.230469 221.445312 211.511719 221.054688 C 211.761719 220.945312 211.984375 220.777344 212.234375 220.667969 C 213.230469 220.613281 214.257812 220.777344 215.285156 221.054688 L 216.003906 221.277344 C 216.339844 221.417969 216.726562 221.582031 217.058594 221.722656 C 217.28125 221.832031 217.863281 222.136719 218.085938 222.25 C 217.890625 222.054688 217.449219 221.554688 217.28125 221.390625 C 217.003906 221.140625 216.699219 220.832031 216.394531 220.585938 L 215.753906 220.085938 C 215.589844 219.972656 215.421875 219.863281 215.257812 219.753906 C 216.253906 219.445312 219.113281 219.808594 219.363281 219.78125 C 219.445312 219.695312 219.417969 219.585938 219.363281 219.503906 C 218.417969 218.558594 217.113281 217.976562 215.839844 217.644531 C 217.835938 217.035156 219.917969 217.117188 221.96875 217.699219 C 222.023438 217.699219 222.078125 217.699219 222.109375 217.644531 C 222.164062 217.589844 220.332031 216.230469 219.304688 215.839844 C 218.890625 215.703125 218.472656 215.5625 218.03125 215.480469 C 219.722656 215.121094 223.496094 215.175781 223.523438 215.0625 C 223.578125 214.953125 223.496094 214.816406 223.382812 214.757812 C 220.691406 213.734375 217.640625 213.539062 214.703125 214.09375 C 213.507812 214.316406 212.34375 214.675781 211.207031 215.148438 C 211.152344 213.039062 211.539062 211.125 212.121094 209.324219 C 212.398438 209.988281 212.703125 210.597656 213.09375 211.125 C 213.203125 211.320312 213.121094 208.433594 213.257812 207.296875 C 213.480469 207.992188 214.367188 209.433594 214.367188 209.238281 C 214.425781 207.714844 214.453125 206.132812 214.703125 204.664062 C 214.949219 206.050781 215.367188 207.464844 215.839844 208.710938 C 215.699219 205.800781 216.117188 202.941406 217.140625 200.527344 C 216.671875 202.054688 216.585938 203.773438 216.921875 205.410156 C 217.003906 205.910156 217.171875 206.410156 217.308594 206.910156 C 217.199219 205.882812 217.171875 204.882812 217.335938 203.941406 C 217.53125 202.5 218.113281 201.363281 218.890625 200.445312 C 218.890625 200.585938 218.890625 200.695312 218.917969 200.835938 C 218.945312 201.140625 218.972656 201.417969 219 201.695312 C 219.054688 201.972656 219.113281 202.277344 219.167969 202.554688 C 219.277344 203.109375 219.445312 203.664062 219.582031 204.191406 C 219.609375 204.328125 219.804688 204.328125 219.804688 204.164062 C 219.804688 204.136719 219.832031 203.359375 219.832031 203.332031 C 219.832031 203.054688 219.832031 202.804688 219.859375 202.527344 C 219.886719 202.277344 219.886719 202 219.917969 201.75 C 219.945312 201.5 220 201.25 220.027344 201 C 220.164062 200.25 220.332031 199.558594 220.582031 198.949219 C 220.554688 200.777344 220.886719 202.609375 221.441406 204.300781 C 221.554688 202.414062 221.996094 200.667969 222.800781 199.199219 C 222.800781 199.28125 222.800781 199.390625 222.800781 199.476562 C 222.773438 200.667969 222.96875 201.886719 223.21875 203.054688 C 223.246094 203.164062 223.355469 203.164062 223.355469 203.027344 C 223.382812 202.109375 223.410156 201.195312 223.550781 200.335938 C 223.578125 200.140625 223.605469 199.890625 223.660156 199.695312 C 223.714844 199.335938 223.855469 198.863281 223.964844 198.503906 L 224.160156 197.949219 C 224.242188 197.78125 224.328125 197.617188 224.410156 197.449219 C 224.464844 197.367188 224.519531 197.285156 224.578125 197.199219 C 224.9375 201.777344 225.214844 206.382812 225.351562 210.957031 C 225.660156 219.476562 225.574219 227.90625 225.132812 236.3125 Z M 238.222656 195.980469 C 237.78125 195.59375 237.28125 195.230469 236.78125 194.871094 C 238.140625 195.425781 239.195312 196.285156 239.695312 197.394531 C 239.222656 196.894531 238.722656 196.425781 238.222656 195.980469 Z M 238.222656 195.980469 "/></g><g clip-rule="nonzero" clip-path="url(#47c8ff4fee)"><path style=" stroke:none;fill-rule:nonzero;fill:#fff9f3;fill-opacity:1;" d="M 111.589844 202.945312 C 111.28125 202.902344 110.5 202.96875 110.535156 203.289062 C 110.570312 203.605469 110.648438 203.953125 110.558594 204.101562 C 110.46875 204.25 110.105469 204.847656 110.105469 204.847656 C 110.105469 204.847656 109.753906 204.578125 109.390625 204.496094 C 109.03125 204.417969 108.035156 204.339844 107.851562 204.238281 C 107.671875 204.136719 106.078125 202.976562 105.753906 202.703125 C 105.429688 202.433594 104.433594 201.753906 104.007812 201.3125 C 103.582031 200.871094 103.347656 200.988281 103.347656 200.414062 C 103.347656 199.835938 103.105469 199.566406 102.683594 199.15625 C 102.257812 198.75 102.023438 198.328125 101.9375 197.5625 C 101.855469 196.800781 101.261719 194.203125 101.023438 193.695312 C 100.785156 193.1875 100.460938 191.777344 100.429688 191.214844 C 100.394531 190.65625 100.632812 190.402344 100.578125 189.792969 C 100.53125 189.179688 100.476562 189.0625 100.832031 188.859375 C 101.1875 188.65625 101.613281 188.183594 101.613281 187.996094 C 101.613281 187.808594 100.441406 187.792969 100.238281 187.640625 C 100.035156 187.488281 99.933594 187.199219 99.746094 186.980469 C 99.5625 186.757812 99.441406 186.417969 99.441406 186.417969 L 99.644531 186.214844 C 99.644531 186.214844 100.476562 186.605469 101.019531 186.46875 C 101.5625 186.332031 101.78125 184.824219 101.9375 184.449219 C 102.089844 184.078125 102.648438 183.246094 102.699219 182.839844 C 102.75 182.433594 102.785156 182.058594 102.785156 182.058594 C 102.785156 182.058594 104.445312 181.28125 104.972656 180.636719 C 105.5 179.992188 105.820312 177.699219 105.601562 177.429688 C 105.382812 177.160156 103.09375 177.34375 102.886719 177.328125 C 102.683594 177.308594 101.191406 175.132812 100.195312 175.082031 C 99.191406 175.035156 97.5625 175.203125 96.578125 175.660156 C 95.597656 176.117188 94.765625 177.222656 94.613281 177.898438 C 94.460938 178.578125 94.796875 180.324219 94.679688 180.664062 C 94.558594 181.007812 92.691406 181.886719 92.507812 182.023438 C 92.320312 182.160156 92.457031 182.464844 92.457031 182.464844 C 92.457031 182.464844 90.03125 181.785156 89.285156 181.886719 C 88.539062 181.988281 87.453125 182.175781 87.027344 182.703125 C 86.605469 183.226562 85.128906 184.921875 84.773438 185.570312 C 84.417969 186.214844 84.007812 186.960938 83.738281 187.027344 C 83.46875 187.09375 81.445312 187.300781 81.246094 187.46875 C 81.039062 187.636719 79.921875 189.960938 79.378906 191.964844 C 78.835938 193.964844 78.429688 198.242188 78.597656 198.988281 C 78.765625 199.734375 78.9375 201.328125 78.867188 202.175781 C 78.800781 203.023438 79.613281 204.246094 79.683594 204.722656 C 79.753906 205.195312 80.550781 206.722656 80.429688 206.925781 C 80.308594 207.128906 79.734375 207.539062 80.058594 207.976562 C 80.378906 208.417969 81.550781 208.910156 81.550781 208.910156 C 81.550781 208.910156 81.515625 211.355469 81.6875 212.132812 C 81.859375 212.914062 82.484375 213.101562 82.484375 213.101562 L 83.011719 212.710938 C 83.011719 212.710938 82.316406 212.269531 82.382812 211.300781 C 82.449219 210.335938 82.46875 209.0625 82.46875 209.0625 L 83.144531 209.078125 C 83.144531 209.078125 83.671875 210.027344 84.570312 210.417969 L 84.996094 209.996094 C 84.996094 209.996094 84.351562 209.585938 84.09375 209.027344 C 84.09375 209.027344 85.128906 209.332031 85.707031 209.316406 C 86.28125 209.296875 86.960938 209.027344 86.960938 209.027344 C 86.960938 209.027344 87.148438 211.027344 87.25 211.25 C 87.351562 211.472656 87.707031 211.472656 87.707031 211.574219 C 87.707031 211.675781 88.285156 214.59375 88.980469 215.59375 C 89.675781 216.59375 90.300781 216.902344 90.300781 216.902344 C 90.300781 216.902344 90.230469 217.648438 90.21875 218.449219 L 69.839844 236.113281 C 69.527344 235.804688 69.238281 235.617188 69.164062 235.6875 C 69.09375 235.753906 69.246094 236.050781 69.527344 236.386719 L 66.28125 239.203125 C 66.28125 239.203125 66.238281 239.386719 66.320312 239.488281 C 66.402344 239.585938 66.519531 239.5625 66.519531 239.5625 L 69.84375 236.742188 C 70.160156 237.054688 70.445312 237.238281 70.519531 237.167969 C 70.59375 237.101562 70.441406 236.804688 70.164062 236.46875 L 90.246094 219.421875 C 90.277344 219.75 90.324219 220.03125 90.414062 220.203125 C 90.769531 220.917969 90.972656 221.988281 90.921875 222.394531 C 90.871094 222.800781 90.769531 223.234375 90.769531 223.464844 C 90.769531 223.691406 90.847656 224.175781 90.4375 224.480469 C 90.03125 224.789062 89.496094 225.730469 88.835938 226.085938 C 88.171875 226.441406 85.574219 227.714844 84.023438 228.65625 C 82.472656 229.597656 80.054688 231.507812 79.492188 232.144531 C 78.933594 232.777344 78.070312 233.492188 77.914062 233.492188 C 77.761719 233.492188 76.574219 233.425781 76.007812 233.566406 C 75.4375 233.710938 74.878906 233.976562 74.835938 233.976562 C 74.792969 233.976562 74.277344 233.875 73.851562 234.050781 C 73.425781 234.230469 74.105469 237.46875 74.300781 237.816406 C 74.496094 238.164062 74.902344 238.429688 74.929688 238.910156 C 74.957031 239.394531 75.277344 241.792969 75.675781 242.8125 C 76.074219 243.832031 77.40625 245.484375 77.804688 245.636719 C 78.203125 245.789062 78.667969 245.332031 78.667969 245.332031 C 78.667969 245.332031 79.015625 245.085938 78.933594 244.558594 C 78.847656 244.035156 78.578125 242.796875 78.691406 242.304688 C 78.808594 241.8125 79.492188 241.167969 79.539062 240.472656 C 79.589844 239.777344 79.691406 238.828125 79.828125 238.707031 C 79.964844 238.589844 81.289062 238.027344 81.390625 237.757812 C 81.492188 237.488281 82.253906 237.605469 82.339844 237.199219 C 82.425781 236.792969 83.476562 235.992188 84.105469 235.484375 C 84.734375 234.976562 87.089844 233.128906 87.988281 232.566406 C 88.886719 232.007812 89.921875 231.824219 90.246094 231.6875 C 90.570312 231.550781 90.890625 230.988281 91.128906 230.871094 C 91.367188 230.75 92.402344 230.328125 92.890625 230.125 C 93.382812 229.921875 94.25 229.648438 94.589844 229.410156 C 94.929688 229.171875 95.386719 228.445312 95.386719 228.445312 C 95.386719 228.445312 95.558594 231.753906 95.4375 232.398438 C 95.316406 233.039062 95.214844 235.976562 95.214844 237.179688 C 95.214844 238.386719 95.25 240.777344 95.351562 240.964844 C 95.453125 241.152344 96.050781 241.285156 95.964844 241.492188 C 95.878906 241.695312 95.40625 242.160156 95.472656 242.535156 C 95.539062 242.90625 95.964844 243.769531 95.9375 244.390625 C 95.914062 245.011719 95.820312 245.582031 96.140625 245.671875 C 96.464844 245.757812 97.558594 245.875 98.816406 245.859375 C 100.070312 245.839844 100.011719 245.441406 100.257812 245.367188 C 100.5 245.292969 101.578125 245.308594 102.207031 245.511719 C 102.835938 245.714844 104.195312 245.867188 105.269531 245.792969 C 106.347656 245.714844 107.476562 245.53125 107.75 245.34375 C 108.019531 245.15625 107.597656 244.613281 107.597656 244.613281 C 107.597656 244.613281 107.292969 243.722656 106.503906 243.601562 C 105.714844 243.484375 104.898438 243.382812 104.355469 243.085938 C 103.8125 242.789062 103.425781 242.226562 102.992188 241.964844 C 102.765625 241.828125 102.421875 241.585938 102.128906 241.332031 L 102.734375 238.90625 C 103.171875 238.972656 103.511719 238.957031 103.53125 238.859375 C 103.554688 238.761719 103.253906 238.613281 102.835938 238.5 L 110.167969 209.128906 C 110.503906 209.175781 110.898438 209.109375 110.964844 209.046875 C 111.058594 208.949219 111.132812 208.71875 111.132812 208.71875 C 111.132812 208.71875 111.585938 208.59375 111.734375 208.445312 C 111.878906 208.300781 111.789062 208.015625 111.789062 208.015625 C 111.789062 208.015625 112.140625 207.871094 112.164062 207.589844 C 112.183594 207.304688 112.003906 207.089844 112.003906 207.089844 C 112.003906 207.089844 112.367188 206.773438 112.34375 206.46875 C 112.324219 206.160156 111.859375 205.628906 111.675781 205.507812 C 111.496094 205.382812 111.65625 204.625 111.8125 204.464844 C 111.972656 204.308594 112.695312 204.105469 112.71875 203.824219 C 112.738281 203.539062 111.890625 202.996094 111.585938 202.949219 Z M 102.371094 238.398438 C 101.9375 238.332031 101.597656 238.347656 101.574219 238.445312 C 101.554688 238.542969 101.851562 238.691406 102.273438 238.804688 L 101.757812 240.96875 C 101.664062 240.863281 101.597656 240.761719 101.566406 240.679688 C 101.445312 240.316406 101.511719 240.121094 101.308594 239.964844 C 101.105469 239.804688 100.832031 239.625 100.832031 239.625 C 100.832031 239.625 101.242188 238.5625 101.195312 238.234375 C 101.148438 237.90625 100.753906 236.457031 100.71875 236.058594 C 100.6875 235.664062 101.40625 233.28125 101.203125 232.390625 C 101 231.5 100.824219 230.585938 100.898438 230.050781 C 100.972656 229.511719 102.195312 228.089844 102.195312 226.816406 C 102.195312 225.542969 101.460938 223.535156 101.332031 222.746094 C 101.203125 221.957031 101.128906 219.894531 100.898438 218.953125 C 100.667969 218.011719 100.160156 217.300781 99.957031 216.28125 C 99.753906 215.261719 99.269531 214.730469 99.324219 214.296875 C 99.371094 213.863281 99.5 213.355469 99.652344 212.972656 C 99.804688 212.589844 99.75 211.890625 99.75 211.890625 C 99.75 211.890625 100.101562 211.84375 100.257812 211.789062 C 100.417969 211.730469 100.496094 211.472656 100.496094 211.472656 C 100.496094 211.472656 100.949219 211.695312 101.140625 211.628906 C 101.335938 211.5625 101.492188 211.152344 101.492188 211.152344 C 101.492188 211.152344 102 211.164062 102.191406 210.972656 C 102.386719 210.78125 102.40625 210.363281 102.40625 210.363281 C 102.40625 210.363281 103.0625 210.183594 103.164062 209.988281 C 103.269531 209.796875 102.933594 209.035156 103.03125 208.9375 C 103.125 208.84375 103.890625 208.792969 104.296875 208.734375 C 104.703125 208.679688 103.910156 207.671875 103.527344 207.355469 C 103.140625 207.039062 102.867188 206.925781 102.710938 207.039062 C 102.550781 207.148438 102.507812 207.363281 102.359375 207.445312 C 102.210938 207.523438 102.019531 207.59375 102.019531 207.59375 C 102.019531 207.59375 101.636719 207.0625 101.203125 206.867188 C 100.773438 206.675781 99.890625 206.765625 99.890625 206.765625 C 99.890625 206.765625 99.417969 206.234375 99.335938 206.019531 C 99.257812 205.804688 99.597656 204.199219 99.597656 204.199219 C 99.597656 204.199219 101.699219 205.613281 102.539062 206.382812 C 103.375 207.152344 105.207031 207.671875 105.742188 207.796875 C 106.273438 207.917969 107.085938 208.046875 107.300781 208 C 107.515625 207.953125 107.609375 207.738281 107.609375 207.738281 C 107.609375 207.738281 107.933594 207.75 108.148438 207.933594 C 108.316406 208.070312 109.011719 208.4375 109.453125 208.726562 Z M 102.371094 238.398438 "/></g><path style="fill:none;stroke-width:7;stroke-linecap:butt;stroke-linejoin:miter;stroke:#012c18;stroke-opacity:1;stroke-miterlimit:4;" d="M -0.00193446 3.502101 L 12.883483 3.502101 " transform="matrix(0.000000001309,0.75,-0.75,0.000000001309,145.607045,225.48192)"/><path style="fill:none;stroke-width:6;stroke-linecap:butt;stroke-linejoin:miter;stroke:#012c18;stroke-opacity:1;stroke-miterlimit:4;" d="M -0.00193446 2.99845 L 12.883483 2.99845 " transform="matrix(0.000000001309,0.75,-0.75,0.000000001309,137.834775,225.48192)"/><path style="fill:none;stroke-width:5;stroke-linecap:butt;stroke-linejoin:miter;stroke:#012c18;stroke-opacity:1;stroke-miterlimit:4;" d="M -0.00193446 2.500137 L 12.883483 2.500137 " transform="matrix(0.000000001309,0.75,-0.75,0.000000001309,130.820415,225.48192)"/><path style="fill:none;stroke-width:4;stroke-linecap:butt;stroke-linejoin:miter;stroke:#012c18;stroke-opacity:1;stroke-miterlimit:4;" d="M -0.00193446 2.001993 L 12.883483 2.001993 " transform="matrix(0.000000001309,0.75,-0.75,0.000000001309,124.563995,225.48192)"/><path style="fill:none;stroke-width:3;stroke-linecap:butt;stroke-linejoin:miter;stroke:#012c18;stroke-opacity:1;stroke-miterlimit:4;" d="M -0.00193446 1.498752 L 12.883483 1.498752 " transform="matrix(0.000000001309,0.75,-0.75,0.000000001309,119.06547,225.48192)"/><path style="fill:none;stroke-width:2;stroke-linecap:butt;stroke-linejoin:miter;stroke:#012c18;stroke-opacity:1;stroke-miterlimit:4;" d="M -0.00193446 1.000869 L 12.883483 1.000869 " transform="matrix(0.000000001309,0.75,-0.75,0.000000001309,114.324871,225.48192)"/><g style="fill:#34a395;fill-opacity:1;"><g transform="translate(208.183056, 239.642283)"><path style="stroke:none" d="M 12.84375 -10.203125 C 13.46875 -9.984375 13.78125 -9.6875 13.78125 -9.3125 C 13.78125 -9.1875 13.722656 -8.957031 13.609375 -8.625 L 10.921875 -0.859375 C 10.898438 -0.785156 10.863281 -0.703125 10.8125 -0.609375 C 10.769531 -0.515625 10.648438 -0.390625 10.453125 -0.234375 C 10.253906 -0.0859375 10.015625 -0.015625 9.734375 -0.015625 C 9.460938 -0.015625 9.222656 -0.0859375 9.015625 -0.234375 C 8.816406 -0.390625 8.6875 -0.546875 8.625 -0.703125 L 6.984375 -5.53125 C 5.953125 -2.46875 5.425781 -0.90625 5.40625 -0.84375 C 5.382812 -0.789062 5.34375 -0.710938 5.28125 -0.609375 C 5.21875 -0.515625 5.140625 -0.425781 5.046875 -0.34375 C 4.835938 -0.125 4.582031 -0.015625 4.28125 -0.015625 C 3.988281 -0.015625 3.742188 -0.0820312 3.546875 -0.21875 C 3.359375 -0.363281 3.226562 -0.503906 3.15625 -0.640625 L 3.0625 -0.859375 L 0.359375 -8.625 C 0.253906 -8.9375 0.203125 -9.164062 0.203125 -9.3125 C 0.203125 -9.6875 0.515625 -9.976562 1.140625 -10.1875 C 1.410156 -10.28125 1.65625 -10.328125 1.875 -10.328125 C 2.101562 -10.328125 2.273438 -10.253906 2.390625 -10.109375 C 2.503906 -9.960938 2.609375 -9.734375 2.703125 -9.421875 L 4.234375 -4.75 L 5.765625 -9.359375 C 5.898438 -9.742188 6.140625 -10.007812 6.484375 -10.15625 C 6.628906 -10.226562 6.820312 -10.265625 7.0625 -10.265625 C 7.300781 -10.265625 7.519531 -10.1875 7.71875 -10.03125 C 7.925781 -9.875 8.0625 -9.722656 8.125 -9.578125 L 9.734375 -4.71875 L 11.265625 -9.421875 C 11.335938 -9.640625 11.394531 -9.796875 11.4375 -9.890625 C 11.488281 -9.992188 11.578125 -10.09375 11.703125 -10.1875 C 11.835938 -10.289062 11.992188 -10.34375 12.171875 -10.34375 C 12.359375 -10.34375 12.582031 -10.296875 12.84375 -10.203125 Z M 12.84375 -10.203125 "/></g></g><g style="fill:#34a395;fill-opacity:1;"><g transform="translate(223.561259, 239.642283)"><path style="stroke:none" d="M 0.5625 -9.03125 C 0.5625 -9.25 0.566406 -9.410156 0.578125 -9.515625 C 0.597656 -9.617188 0.644531 -9.742188 0.71875 -9.890625 C 0.84375 -10.140625 1.207031 -10.265625 1.8125 -10.265625 C 2.457031 -10.265625 2.84375 -10.09375 2.96875 -9.75 C 3.007812 -9.582031 3.03125 -9.335938 3.03125 -9.015625 L 3.03125 -1.234375 C 3.03125 -1.003906 3.023438 -0.835938 3.015625 -0.734375 C 3.003906 -0.640625 2.960938 -0.519531 2.890625 -0.375 C 2.753906 -0.125 2.390625 0 1.796875 0 C 1.140625 0 0.753906 -0.175781 0.640625 -0.53125 C 0.585938 -0.675781 0.5625 -0.914062 0.5625 -1.25 Z M 0.5625 -9.03125 "/></g></g><g style="fill:#34a395;fill-opacity:1;"><g transform="translate(228.557257, 239.642283)"><path style="stroke:none" d="M 1.234375 -10.28125 L 9.015625 -10.28125 C 9.316406 -10.28125 9.535156 -10.242188 9.671875 -10.171875 C 9.816406 -10.097656 9.910156 -9.988281 9.953125 -9.84375 C 10.003906 -9.695312 10.03125 -9.5 10.03125 -9.25 C 10.03125 -9.007812 10.003906 -8.816406 9.953125 -8.671875 C 9.910156 -8.523438 9.832031 -8.425781 9.71875 -8.375 C 9.550781 -8.289062 9.3125 -8.25 9 -8.25 L 6.328125 -8.25 L 6.328125 -1.203125 C 6.328125 -0.984375 6.316406 -0.820312 6.296875 -0.71875 C 6.285156 -0.625 6.242188 -0.507812 6.171875 -0.375 C 6.109375 -0.238281 5.988281 -0.140625 5.8125 -0.078125 C 5.632812 -0.0234375 5.398438 0 5.109375 0 C 4.816406 0 4.582031 -0.0234375 4.40625 -0.078125 C 4.238281 -0.140625 4.117188 -0.238281 4.046875 -0.375 C 3.984375 -0.507812 3.941406 -0.628906 3.921875 -0.734375 C 3.910156 -0.835938 3.90625 -1 3.90625 -1.21875 L 3.90625 -8.25 L 1.21875 -8.25 C 0.914062 -8.25 0.691406 -8.28125 0.546875 -8.34375 C 0.410156 -8.414062 0.316406 -8.523438 0.265625 -8.671875 C 0.222656 -8.828125 0.203125 -9.023438 0.203125 -9.265625 C 0.203125 -9.503906 0.222656 -9.695312 0.265625 -9.84375 C 0.316406 -9.988281 0.398438 -10.09375 0.515625 -10.15625 C 0.679688 -10.238281 0.921875 -10.28125 1.234375 -10.28125 Z M 1.234375 -10.28125 "/></g></g><g style="fill:#34a395;fill-opacity:1;"><g transform="translate(240.185552, 239.642283)"><path style="stroke:none" d="M 6.90625 -9.875 C 6.976562 -10.019531 7.101562 -10.117188 7.28125 -10.171875 C 7.457031 -10.234375 7.679688 -10.265625 7.953125 -10.265625 C 8.222656 -10.265625 8.4375 -10.238281 8.59375 -10.1875 C 8.75 -10.144531 8.867188 -10.085938 8.953125 -10.015625 C 9.046875 -9.953125 9.113281 -9.863281 9.15625 -9.75 C 9.195312 -9.582031 9.21875 -9.335938 9.21875 -9.015625 L 9.21875 -1.25 C 9.21875 -1.03125 9.210938 -0.867188 9.203125 -0.765625 C 9.191406 -0.660156 9.148438 -0.535156 9.078125 -0.390625 C 8.941406 -0.140625 8.578125 -0.015625 7.984375 -0.015625 C 7.328125 -0.015625 6.941406 -0.1875 6.828125 -0.53125 C 6.773438 -0.6875 6.75 -0.929688 6.75 -1.265625 L 6.75 -4.109375 L 3.03125 -4.109375 L 3.03125 -1.25 C 3.03125 -1.03125 3.023438 -0.867188 3.015625 -0.765625 C 3.003906 -0.660156 2.960938 -0.535156 2.890625 -0.390625 C 2.753906 -0.140625 2.390625 -0.015625 1.796875 -0.015625 C 1.140625 -0.015625 0.753906 -0.1875 0.640625 -0.53125 C 0.585938 -0.6875 0.5625 -0.929688 0.5625 -1.265625 L 0.5625 -9.03125 C 0.5625 -9.25 0.566406 -9.410156 0.578125 -9.515625 C 0.597656 -9.617188 0.644531 -9.742188 0.71875 -9.890625 C 0.84375 -10.140625 1.207031 -10.265625 1.8125 -10.265625 C 2.457031 -10.265625 2.84375 -10.09375 2.96875 -9.75 C 3.007812 -9.582031 3.03125 -9.335938 3.03125 -9.015625 L 3.03125 -6.15625 L 6.75 -6.15625 L 6.75 -9.03125 C 6.75 -9.25 6.753906 -9.410156 6.765625 -9.515625 C 6.785156 -9.617188 6.832031 -9.738281 6.90625 -9.875 Z M 6.90625 -9.875 "/></g></g><g style="fill:#34a395;fill-opacity:1;"><g transform="translate(251.366647, 239.642283)"><path style="stroke:none" d=""/></g></g><g style="fill:#34a395;fill-opacity:1;"><g transform="translate(256.306672, 239.642283)"><path style="stroke:none" d=""/></g></g><g style="fill:#34a395;fill-opacity:1;"><g transform="translate(261.257271, 239.642283)"><path style="stroke:none" d="M 6.90625 -9.875 C 6.976562 -10.019531 7.101562 -10.117188 7.28125 -10.171875 C 7.457031 -10.234375 7.679688 -10.265625 7.953125 -10.265625 C 8.222656 -10.265625 8.4375 -10.238281 8.59375 -10.1875 C 8.75 -10.144531 8.867188 -10.085938 8.953125 -10.015625 C 9.046875 -9.953125 9.113281 -9.863281 9.15625 -9.75 C 9.195312 -9.582031 9.21875 -9.335938 9.21875 -9.015625 L 9.21875 -1.25 C 9.21875 -1.03125 9.210938 -0.867188 9.203125 -0.765625 C 9.191406 -0.660156 9.148438 -0.535156 9.078125 -0.390625 C 8.941406 -0.140625 8.578125 -0.015625 7.984375 -0.015625 C 7.328125 -0.015625 6.941406 -0.1875 6.828125 -0.53125 C 6.773438 -0.6875 6.75 -0.929688 6.75 -1.265625 L 6.75 -4.109375 L 3.03125 -4.109375 L 3.03125 -1.25 C 3.03125 -1.03125 3.023438 -0.867188 3.015625 -0.765625 C 3.003906 -0.660156 2.960938 -0.535156 2.890625 -0.390625 C 2.753906 -0.140625 2.390625 -0.015625 1.796875 -0.015625 C 1.140625 -0.015625 0.753906 -0.1875 0.640625 -0.53125 C 0.585938 -0.6875 0.5625 -0.929688 0.5625 -1.265625 L 0.5625 -9.03125 C 0.5625 -9.25 0.566406 -9.410156 0.578125 -9.515625 C 0.597656 -9.617188 0.644531 -9.742188 0.71875 -9.890625 C 0.84375 -10.140625 1.207031 -10.265625 1.8125 -10.265625 C 2.457031 -10.265625 2.84375 -10.09375 2.96875 -9.75 C 3.007812 -9.582031 3.03125 -9.335938 3.03125 -9.015625 L 3.03125 -6.15625 L 6.75 -6.15625 L 6.75 -9.03125 C 6.75 -9.25 6.753906 -9.410156 6.765625 -9.515625 C 6.785156 -9.617188 6.832031 -9.738281 6.90625 -9.875 Z M 6.90625 -9.875 "/></g></g><g style="fill:#34a395;fill-opacity:1;"><g transform="translate(272.437816, 239.642283)"><path style="stroke:none" d="M 3.03125 -2.484375 L 7.34375 -2.484375 C 7.5625 -2.484375 7.722656 -2.472656 7.828125 -2.453125 C 7.941406 -2.441406 8.066406 -2.398438 8.203125 -2.328125 C 8.453125 -2.191406 8.578125 -1.828125 8.578125 -1.234375 C 8.578125 -0.578125 8.40625 -0.191406 8.0625 -0.078125 C 7.90625 -0.0234375 7.664062 0 7.34375 0 L 1.796875 0 C 1.140625 0 0.753906 -0.175781 0.640625 -0.53125 C 0.585938 -0.675781 0.5625 -0.914062 0.5625 -1.25 L 0.5625 -9.03125 C 0.5625 -9.507812 0.648438 -9.832031 0.828125 -10 C 1.003906 -10.175781 1.335938 -10.265625 1.828125 -10.265625 L 7.34375 -10.265625 C 7.5625 -10.265625 7.722656 -10.253906 7.828125 -10.234375 C 7.941406 -10.222656 8.066406 -10.179688 8.203125 -10.109375 C 8.453125 -9.972656 8.578125 -9.609375 8.578125 -9.015625 C 8.578125 -8.359375 8.40625 -7.976562 8.0625 -7.875 C 7.90625 -7.8125 7.664062 -7.78125 7.34375 -7.78125 L 3.03125 -7.78125 L 3.03125 -6.375 L 5.8125 -6.375 C 6.019531 -6.375 6.175781 -6.363281 6.28125 -6.34375 C 6.394531 -6.332031 6.519531 -6.289062 6.65625 -6.21875 C 6.914062 -6.082031 7.046875 -5.71875 7.046875 -5.125 C 7.046875 -4.46875 6.867188 -4.082031 6.515625 -3.96875 C 6.347656 -3.914062 6.101562 -3.890625 5.78125 -3.890625 L 3.03125 -3.890625 Z M 3.03125 -2.484375 "/></g></g><g style="fill:#34a395;fill-opacity:1;"><g transform="translate(282.764838, 239.642283)"><path style="stroke:none" d="M 11.46875 -9.875 C 11.539062 -9.726562 11.582031 -9.597656 11.59375 -9.484375 C 11.613281 -9.378906 11.625 -9.21875 11.625 -9 L 11.625 -1.234375 C 11.625 -0.585938 11.445312 -0.207031 11.09375 -0.09375 C 10.914062 -0.0390625 10.691406 -0.015625 10.421875 -0.015625 C 10.148438 -0.015625 9.929688 -0.0351562 9.765625 -0.078125 C 9.609375 -0.128906 9.488281 -0.1875 9.40625 -0.25 C 9.320312 -0.3125 9.257812 -0.40625 9.21875 -0.53125 C 9.164062 -0.6875 9.140625 -0.929688 9.140625 -1.265625 L 9.140625 -5.953125 C 8.910156 -5.660156 8.570312 -5.195312 8.125 -4.5625 C 7.675781 -3.9375 7.390625 -3.546875 7.265625 -3.390625 C 7.140625 -3.234375 7.050781 -3.125 7 -3.0625 C 6.957031 -3 6.84375 -2.910156 6.65625 -2.796875 C 6.476562 -2.691406 6.285156 -2.640625 6.078125 -2.640625 C 5.867188 -2.640625 5.675781 -2.6875 5.5 -2.78125 C 5.332031 -2.882812 5.210938 -2.984375 5.140625 -3.078125 L 5.03125 -3.234375 C 4.84375 -3.460938 4.472656 -3.957031 3.921875 -4.71875 C 3.367188 -5.476562 3.070312 -5.890625 3.03125 -5.953125 L 3.03125 -1.234375 C 3.03125 -1.015625 3.019531 -0.851562 3 -0.75 C 2.988281 -0.644531 2.945312 -0.523438 2.875 -0.390625 C 2.726562 -0.140625 2.363281 -0.015625 1.78125 -0.015625 C 1.207031 -0.015625 0.851562 -0.140625 0.71875 -0.390625 C 0.644531 -0.523438 0.597656 -0.644531 0.578125 -0.75 C 0.566406 -0.863281 0.5625 -1.035156 0.5625 -1.265625 L 0.5625 -9.03125 C 0.5625 -9.25 0.566406 -9.410156 0.578125 -9.515625 C 0.597656 -9.617188 0.644531 -9.742188 0.71875 -9.890625 C 0.851562 -10.128906 1.21875 -10.25 1.8125 -10.25 C 2.0625 -10.25 2.273438 -10.21875 2.453125 -10.15625 C 2.640625 -10.09375 2.757812 -10.03125 2.8125 -9.96875 L 2.890625 -9.890625 L 6.078125 -5.71875 C 7.660156 -7.8125 8.71875 -9.195312 9.25 -9.875 C 9.40625 -10.125 9.78125 -10.25 10.375 -10.25 C 10.96875 -10.25 11.332031 -10.125 11.46875 -9.875 Z M 11.46875 -9.875 "/></g></g><g style="fill:#34a395;fill-opacity:1;"><g transform="translate(296.338045, 239.642283)"><path style="stroke:none" d="M 7.265625 -9.875 C 7.359375 -10.03125 7.492188 -10.132812 7.671875 -10.1875 C 7.847656 -10.25 8.066406 -10.28125 8.328125 -10.28125 C 8.597656 -10.28125 8.8125 -10.253906 8.96875 -10.203125 C 9.132812 -10.160156 9.257812 -10.101562 9.34375 -10.03125 C 9.425781 -9.96875 9.484375 -9.875 9.515625 -9.75 C 9.578125 -9.582031 9.609375 -9.335938 9.609375 -9.015625 L 9.609375 -4.78125 C 9.609375 -3.550781 9.222656 -2.429688 8.453125 -1.421875 C 8.078125 -0.953125 7.59375 -0.566406 7 -0.265625 C 6.414062 0.0234375 5.765625 0.171875 5.046875 0.171875 C 4.335938 0.171875 3.691406 0.0195312 3.109375 -0.28125 C 2.523438 -0.582031 2.050781 -0.972656 1.6875 -1.453125 C 0.9375 -2.441406 0.5625 -3.5625 0.5625 -4.8125 L 0.5625 -9.03125 C 0.5625 -9.25 0.566406 -9.410156 0.578125 -9.515625 C 0.597656 -9.628906 0.644531 -9.753906 0.71875 -9.890625 C 0.789062 -10.035156 0.914062 -10.132812 1.09375 -10.1875 C 1.269531 -10.25 1.503906 -10.28125 1.796875 -10.28125 C 2.097656 -10.28125 2.335938 -10.25 2.515625 -10.1875 C 2.691406 -10.132812 2.816406 -10.035156 2.890625 -9.890625 C 2.992188 -9.679688 3.046875 -9.390625 3.046875 -9.015625 L 3.046875 -4.8125 C 3.046875 -4.25 3.1875 -3.707031 3.46875 -3.1875 C 3.613281 -2.925781 3.820312 -2.71875 4.09375 -2.5625 C 4.375 -2.40625 4.707031 -2.328125 5.09375 -2.328125 C 5.78125 -2.328125 6.289062 -2.578125 6.625 -3.078125 C 6.957031 -3.585938 7.125 -4.171875 7.125 -4.828125 L 7.125 -9.109375 C 7.125 -9.472656 7.171875 -9.726562 7.265625 -9.875 Z M 7.265625 -9.875 "/></g></g></g>


</svg>